<?xml version="1.0" encoding="UTF-8"?><svg id="a" xmlns="http://www.w3.org/2000/svg" width="438.4" height="662.17" viewBox="0 0 438.4 662.17"><path d="m391.2,246.2c-3.85,12.13-9.12,23.56-16.04,34.28-10.95,16.96-25.52,30.06-42.33,40.95-7.39,4.79-14.95,9.21-23.03,12.71-2.75,1.1-5.48,2.25-8.25,3.29-7.04,2.64-13.82,6.17-21.53,6.68,0-1.36.02-2.88-1.47-3.43-6.2-2.29-2-3.24.52-4.47,24.42-11.9,48.46-24.35,65.79-46.29,8.69-10.99,16.61-22.42,19.23-36.61l.02-.02c9.9-1.48,19.37-3.93,26.3-11.94.36.59.72,1.18,1.09,1.78-.04.71-.08,1.42-.12,2.14-.24.28-.3.59-.19.94Z" fill="#c4552d" stroke-width="0"/><path d="m438.1,477.18c.1,4.04.2,8.08.3,12.12-.21.05-.41.05-.61-.02-3.49.79-4.06,4.1-5.53,6.57-2.49,4.18-3.94,8.98-7.93,13.2.96-10.42,1.3-20.01-.2-29.69-4.66,5.64-6.66,12.65-11.11,18.18,0-8.43,0-16.86,0-25.3.77-.76.89-1.72.94-2.73.98-19.59-1.94-38.52-9.09-56.85-2.7-6.93-7.22-13.03-8.94-20.37l.25-.2c6.8,5.56,12.01,12.58,17.71,19.16,5.11,8.32,10.57,16.44,14.18,25.6,4.45,11.3,8.17,22.77,9.07,34.98.08,1.14.56,2.25.86,3.37-.85.7-.83,1.36.09,1.98Z" fill="#e7c091" stroke-width="0"/><path d="m390.42,241.35c-6.94,8.02-16.4,10.46-26.3,11.94.34-6.42-.71-12.43-3.58-18.36-5.3-10.94-16.3-11.06-26.2-13.87,1.74-2.2,3.67-2.28,5.36-2.73,9.98-2.63,10.29-2.69,7.24-12.56-4.46-14.42-10.58-27.86-25.72-34.31-2.62-1.12-1.2-2.06-.46-3.26,7.09.34,12.48,4.19,17.41,8.72,8.93,8.23,15.75,18.34,23.83,27.33,2.52,2.19,2.65,5.83,4.94,8.16,0,0,.09.07.09.07.38.58.76,1.16,1.14,1.73.24,1.25.84,2.25,1.96,2.9,0,0,.06.09.06.09.3.33.59.67.89,1,4.37,4.34,8.73,8.67,13.1,13.01.29.35.58.71.87,1.06,0,0-.01-.01-.01-.01.34,1.21,1,2.17,2.12,2.79,0,0,.09.13.09.13.28.33.56.67.84,1,0,0,.02.03.02.03.21,1.02.79,1.77,1.67,2.3,0,0,0,.03,0,.03-.03.31.08.54.35.69.1.69.21,1.39.31,2.08Z" fill="#dc702d" stroke-width="0"/><path d="m254.08,4.21c.11.22.14.45.1.69.3.45.61.9.91,1.35-.05.63-.11,1.26-.16,1.89-2.66-.05-5.6.62-7.92-.29-6.89-2.71-13.98-2.42-21.11-2.53-2.92-.04-5.98.9-8.75-.86.47-2.1,2.81-1.79,3.93-3.04.32-.03.64-.06.96-.09,1.45.02,2.91.1,4.11-.95.62-.06,1.24-.13,1.86-.19l8.1-.18c1.65.1,3.31.2,4.96.3.59.09,1.17.19,1.76.29,0,0,.08-.09.08-.09,2.17,1.31,4.6,1.68,7.06,1.91,0,0,0-.03,0-.03.48.82,1.27.95,2.12.93.11.2.27.25.48.14.5.26,1,.51,1.5.77Z" fill="#f27f45" stroke-width="0"/><path d="m395,390.8c.35.11.71.22,1.06.33.02.32.06.65.13.96,0,0-.25.2-.25.2-.31-.5-.63-1-.94-1.5Z" fill="#e7c091" stroke-width="0"/><path d="m90.93,167.6c-3.05-.72-6.07-1.62-9.16-2.1-3.46-.54-1.17-2.03-.73-3.26,1.84-1.19,2.92-3.04,4.14-4.78.35-.38.7-.77,1.05-1.15,3.65-3.62,7.3-7.24,10.95-10.85.29-.38.59-.76.89-1.14.1-.18.21-.36.33-.52,3.67-1.55,4.93-5.5,7.81-7.83,1.28-.58,2.16-1.57,2.78-2.8.78-.36,1.11-1.02,1.17-1.84,4.86-1.81,7.66-6.2,11.54-9.23,4.15,1.29,8.31,2.59,12.46,3.88-1.37,1.53-3.66,2.4-3.6,5.81,5.35-2.33,10.53-4.69,16.22-2.65,8.99,2.9,18.21,4.91,27.47,6.67,16.23,3.1,32.41,6.66,49.08,6.38,4.74.51,9.69.26,13.3,4.34,1.02,1.16,2.04,3.4,3.84,2.35,1.5-.88.53-3.03.39-4.64.67-.64,1.41-.61,2.3-.48,8.72,1.31,17.42.54,25.48-2.72,7.36-2.98,15.68-5.26,19.12-13.89,1.89,3.49,4.24,6.65,6.91,9.61,1.87-.99,2.27-3.14,3.48-4.67.85-.99,1.65-2.03,2.56-2.95,7.6-7.61,15.21-7.56,21.43.12,2.7,9.93,2.32,19.98,1.11,30.05-.67,2.31-1.34,4.61-2.01,6.92-.16.66-.32,1.32-.49,1.98-.74,1.21-2.15,2.15.47,3.26,15.14,6.45,21.26,19.89,25.72,34.31,3.06,9.87,2.74,9.93-7.24,12.56-1.69.44-3.62.53-5.36,2.73,9.9,2.82,20.91,2.94,26.2,13.87,2.87,5.93,3.93,11.94,3.58,18.36,0,0-.02.02-.02.02-18.12,1.6-33.83,8.77-47.88,20.16-4.7,3.81-8.39,9.06-14.54,10.97-2.59-8.08-5.26-16.07-10.72-22.85-11.51-14.28-26.98-21.77-44.26-26.18-12.15-3.1-24.55-4.19-37.07-3.99-3.49.06-6.99.11-10.48.09-11.99-.05-21.69-4.71-28.39-14.77-12.6-18.93-29.86-31.87-50.82-40.19-4.61-1.83-9.61-2.59-14-5.04.05-2.32.23-4.64.14-6.95-.19-4.9-3.43-6.49-7.75-4.12-3.16,1.74-4.74,4.98-7.41,7.16Zm119.2,14.91c.24,7.07,1.02,14,5.14,20,5.2,7.58,14.48,7.81,19.37.04,7.95-12.65,8.48-26.14,1.57-39.31-5.31-10.12-15.53-9.79-21.45.13-3.53,5.91-4.15,12.52-4.63,19.14Zm-94.22-19.96c-.14,9.47,4.4,12.74,10.84,9.08,10.69-6.07,17.13-15.64,19.13-27.69,1.22-7.33-4.89-11.41-11.39-7.81-11.05,6.14-16.71,16.09-18.58,26.41Zm143.95,57.74c8.12-.01,12.15-6.72,8.69-13.16-1.77-3.3-4.4-5.87-7.49-7.87-4.4-2.85-8.32-1.86-10.81,2.73-2.64,4.86-.54,9.41,1.58,13.74,1.74,3.54,5.25,4.26,8.02,4.57Z" fill="#f5ac39" stroke-width="0"/><path d="m341.35,595.99c-.63,3.48-.25,6.91.45,10.34.59,2.89-.04,4.72-3.59,5-3.09.24-6.11,1.26-9.16,1.94-1.32.05-2.68-.09-3.96.17-14.42,2.95-28.83,5.97-43.24,8.97-3.4.69-6.84,1.22-10.18,2.12-2.77.74-3.66-.37-3.67-2.88-.11-.9-.03-1.86-.97-2.43h0c-.2-1.05.19-2.31-1.06-3l.05.07c-.12-1.87-.24-3.73-.35-5.6l-.08.13c2.54-.29,5.09-.58,8.26-.94-5.05-4.72-10.1-8.36-14.19-13.2-3.34-3.96-2.32-6.3.63-9.21,2.88-2.84,5.77-5.69,7.58-9.74-3.71-.23-6.29,1.95-9.36,2.56-16.26,3.24-32.49,3.29-48.91,1.06-18.32-2.48-35.95-7.72-53.74-12.36-1.48-.39-3.22-2.62-4.36-.84-1.19,1.86,1.25,3.13,2.47,4.36,7.37,7.46,14.8,14.86,22.21,22.28q6.16,6.17-1.96,9.11c-.21.08-.27.55-.69,1.48,9.29,1.48,18.31,3.27,27.62,2.78,3.38-.26,4.45,1.37,3.76,4.52-.39,1.77-.84,3.53-1.03,5.32-.49,4.68-2.3,7.18-7.59,5.7-2.14-.6-4.56-.18-6.85-.23-7.42-.73-14.83-1.69-22.27-2.12-7.45-.44-14.76-2.28-22.26-2.03-3.76-1.51-7.87-1.05-11.71-2.09-1.09-.29-2.33-.11-3.15-1.19-1.34-1.75-1.46-15.1.34-16.28,2.17-1.41,1.21-2.68.72-4.16-8.26-25.3-14.01-51.16-17.57-77.54-.58-4.28-.11-8.67-1.47-12.85,1.24-1.45,2.92-1.95,4.71-2.24-.18,5.98.9,11.54,4.95,16.25,7.64,8.87,16.11,16.79,26.66,22.11,23.11,11.64,47.47,15.06,73.03,11.11,28.52-4.41,53.02-16.49,73.24-37.19,2.43-2.49,2.69-3.86-.82-5.15-4.11-1.51-7.24-4.03-7.92-8.71,2.05.35,2.8,2.99,5.1,2.89,6.79,2.42,12.77,7.43,20.96,5.17,5.04-1.39,8.97,1.26,9.87,5.86,1.92,9.74,3.75,19.51,5.18,29.33,2.02,13.78,3.09,27.64,3.26,41.61.05,4.26,1.49,8.21-4.37,9.98,3.13-2.63,7.99,1.6,10.15-3.28,1.76,1.03,3.53,2.06,5.29,3.09Zm-205.45,9.21c.04-1.61-1.09-1.81-2.31-1.88-1.01-.06-1.58.43-1.51,1.43.08,1.25.57,2.27,2.03,2.32,1.27.05,1.72-.74,1.79-1.87Z" fill="#445a6c" stroke-width="0"/><path d="m24.16,206.89c-2.32,20.23,3.29,38.09,16.19,53.7,11.24,13.61,24.94,24.08,40.8,31.85,13.37,6.55,27.36,10.93,42.12,12.84,1.42.18,2.52.79,2.99,2.24-2.17,4.95-1.14,6.83,4.22,6.68,21.29-.59,41.77-4.18,59.68-16.81.13,1.89-.87,2.97-2.36,4.04-7.74,5.57-15.85,10.41-24.95,13.41-6.62,2.18-13.1,4.82-19.96,6.27-1.28.27-3.12.19-3.23,1.75-.14,1.92,1.86,2.01,3.25,2.37,20.01,5.06,40.26,6.03,60.8,4.22,23.55-2.08,45.64-8.68,66.23-20.19,10.17-5.69,19.61-12.49,28.43-20.15.86-.75,1.95-1.23,2.93-1.83,2.44,11.8-1.63,21.97-8.24,31.3-11.72,16.55-29,24.35-47.76,29.67-5.08,1.44-10.19,2.78-15.28,4.16-21.2,2.72-42.33,1.76-63.45-1.06-11.35-1.51-22.39-4.48-33.63-6.49-4.23-1.19-8.47-2.38-12.7-3.57-7.13-4.02-15.18-5.62-22.68-8.67-20.21-8.23-39.66-17.98-56.33-32.12-21.18-17.97-35.98-40.11-40.11-68.31-2.02-13.82-1.68-27.38,4-40.45,1.06-2.44,2.1-4.84,4.37-6.43,3.9,7.87,8.06,15.56,14.66,21.59Z" fill="#e7c091" stroke-width="0"/><path d="m143.12,50.46c.48-1.82,1.44-3.3,3.05-4.33,1.69-.05,1.92-1.19,1.89-2.52,0-.21.09-.34.29-.39,1.09-.12,1.6-.73,1.54-1.83,0,0,.27-.31.27-.3,2.27-.02,2.89-1.46,2.93-3.4.44-.47.88-.94,1.32-1.41.53-.32,1.07-.65,1.6-.98,0,0,.09-.08.09-.08.3-.33.59-.66.89-.98,0,0,.04-.06.04-.06,2.14.28,3.83-.88,5.62-1.73,24.66-11.63,50.26-17.38,77.58-12.41,1.84.34,3.86.6,3.67-2.38.99-.01,1.97-.02,2.95-.03,3.27,3.03,7.68,4.71,10.19,8.63,1.75,2.61,3.56,5.19,5.25,7.85,8.16,12.88,8.9,26.91,1.02,36.15-8.29,9.72-19.22,14.94-32.04,16.05-2.75.24-5.65-.85-8.22.93-4.47.28-8.62-1.61-13.01-1.95l.05.02c-.48-.8-1.26-.98-2.11-1.02-20.17-11.42-39.94-23.7-62.67-29.69-2.8-.74-1.62-2.7-2.2-4.15Z" fill="#f27f45" stroke-width="0"/><path d="m80.49,104.09c-2.7-2.1-5.58-4.02-8.07-6.35-5.65-5.28-11.56-10.46-12.83-18.77.66-6.93,4.96-10.95,11.01-13.36,2.6-1.04,5.35-1.88,8.11-2.3,16.3-2.44,32.46-1.31,48.41,2.53,14.73,3.54,29.04,8.27,42.02,16.38-4.64-.82-8.05,2.69-12.21,3.5-13.62,2.66-24.01,10.42-32.85,20.64-3.94,4.56-7.52,9.31-6.98,15.85-.36.16-.71.32-1.06.47.02-1.03-.71-1.45-1.49-1.72-7.65-2.66-14.79-6.48-22.15-9.79-3.66-2.89-7.44-5.58-11.92-7.08Z" fill="#a52c2d" stroke-width="0"/><path d="m169.15,82.22c-12.97-8.1-27.29-12.83-42.02-16.38-15.96-3.84-32.12-4.97-48.41-2.53-2.76.41-5.51,1.26-8.11,2.3-6.06,2.42-10.35,6.43-11.01,13.36-2.3-6.12.43-12.79,7.65-18.72,6.27-1.27,12.97.42,18.98-2.7.94-.04,1.88-.07,2.82-.11,1.07.98,2.1,1.04,3.07-.13,3.28-.46,6.54-.98,9.9-.94,15.68.19,30.93,3.27,46.03,7.05,15.46,3.86,29.45,11.19,43.13,19.2,10.89,6.37,21.36,13.47,32.83,18.85.66.3,1.31.61,1.97.91l.05.03c.65.32,1.31.64,1.96.95,0,0,.06.03.06.03,5.57,3.23,11.46,6.13,17.66,7.36,5.23,1.03,10.8,3.35,16.3.52,6.4.79,12.34,4.1,19.71,3.93-2-1.83-4.07-2.52-3.39-5.19.94-3.68,1.21-7.54,2.22-11.19,4.9-17.71,5.67-35.25-1.45-52.61,2.93-1.7-.82-3.27-.09-4.93-.18-2.82-.5-5.54-4.15-5.94-.26-.33-.53-.65-.79-.98,0-.85-.2-1.6-1.03-2.04l-.07.05c1.61-1.44-5.06-4.52,1-5.08,0,0,.12.06.12.06.37,2.51,2.36,1.78,3.9,1.94,0,0,.11.05.1.05.61.31,1.23.63,1.84.94,0,0,.17.08.17.08.33.29.67.58,1,.87,10.45,5.08,19.34,12.17,26.9,20.97-1.23,1.07-2.41,2.23-3.71,3.2-15.34,11.47-20.9,27.45-21.25,45.86-1.34,8.73,1.71,16.74,4.12,24.85-1.69.05-3.38.1-5.06.15-8.94.75-17.81,2.82-26.86,1.38l-1.93-.29s-.42-.24-.42-.24c-4.19-1.57-8.43-2.96-12.86-3.69-2.61-.89-5.12-1.94-7.58-3.28-10.05-5.44-20.24-10.62-30.37-15.89-.3-.19-.6-.39-.9-.58-.36-.15-.72-.3-1.08-.45-9.76-7.82-19.66-15.43-30.94-21.01Z" fill="#db4f3d" stroke-width="0"/><path d="m24.16,206.89c-6.61-6.03-10.76-13.73-14.66-21.59-2.77-7.17-4.58-14.52-4.38-22.29.13-5.16,1.24-9.81,6.01-12.75,1.48.75,2.96,1.49,4.44,2.24-.27,1.99,1.28,2.66,2.61,3.14,10.57,3.87,20.62,9.23,31.85,11.23.23.44.35,1.07.71,1.28,8,4.63,15.95,9.35,24.1,13.71,2.38,1.27,4.26-.23,4.19-3.04-.06-2.28-.54-4.56-.84-6.83,3.4,2.52,6.08,5.72,7.69,9.59,3.25,7.82.76,15.72-6.62,20.37-11.56,7.29-24.54,10.04-37.95,10.19-4.88.06-6.38,2.07-7.01,6.05-.31,1.97-.61,3.94-.85,5.92-.17,1.41-.49,2.84-2.22,2.62-1.56-.2-2.12-1.62-1.87-3.04.46-2.61.79-5.31,1.76-7.74,1.32-3.29,1.49-5.58-2.63-6.66-1.55-.41-2.9-1.56-4.34-2.37Z" fill="#261825" stroke-width="0"/><path d="m71.98,393.26c.3-.57.59-1.14.89-1.72.38,1.05,1.12,1.63,2.22,1.78,0,1.43,1.34,1.89,2.04,2.82-7.82,2.83-10.1,9.99-13.06,16.64-1.49,3.33-.77,6.1,1.74,8.59,3.78,3.74,7.39,7.66,11.32,11.23,7.19,6.54,15.13,11.75,24.88,13.86,4.07.88,5.62-.95,6.09-4.4.54-3.94-.94-7.41-2.62-10.94-4.52-9.51-12.16-15.51-21.43-19.81.88-1.78,2.15-2.01,4.1-1.66,3.51.63,6.42,2.63,9.72,3.69,9.3,8.2,13.04,19.35,16.36,30.73-.51.37-1.44.72-1.46,1.12-.41,7.71-1.77,15.43.19,23.11l-.06.04c-1,5.01-1.92,10.04-3.04,15.02-.78,3.46-2.38,3.93-5.04,1.27-2.44-2.44-3.46-6.05-6.64-7.82-5.56-6.36-11.43-12.4-18.07-17.64-.33-.31-.66-.62-.99-.94-6.77-6.52-12.96-13.42-17.38-21.88-5.97-11.42-7.23-22.41,1.38-33.12.72.07.96-.37,1.07-.97,0,0-.02.02-.02.02.28-.36.57-.72.86-1.08,1.04-1.3,2.08-2.59,3.11-3.89.33-.37.65-.74.98-1.1,0,0,0,.01,0,.01.31-.34.61-.69.92-1.03.35-.35.71-.71,1.06-1.06.54-.05.94-.24.89-.88Z" fill="#dc702d" stroke-width="0"/><path d="m144.9,619.29c7.5-.25,14.81,1.59,22.26,2.03,7.44.44,14.85,1.39,22.27,2.12-.28,3.87-.56,7.74-.84,11.61-.09.07-.27.15-.26.22.02.21.1.42.16.63-.04,1.45-.08,2.9-.12,4.35-.09,2.15-.69,4.43-.17,6.42,1.33,5.12-1.29,6.44-5.57,6.9-19.59,2.09-39.14,5.16-58.93,2.63-2.11-.27-4.25-.76-6.22-1.54-3.03-1.2-4.55-3.28-2.56-6.57,2.59,1.13,5.31,1.8,8.12,2.08,12.36,1.21,24.76,1.05,37.16,1.02,2,0,3.94-.09,5.85-.83,1.3-.5,1.75-1,1.38-2.54-1.2-4.92-10.45-13.01-15.45-13.2-.34-.01-.71.6-1.07.91-2.56-1.1-5.65-1.3-7.21-4.15,3.18-3.76.44-8.1,1.19-12.1Z" fill="#261825" stroke-width="0"/><path d="m224,101.47c-11.46-5.37-21.94-12.48-32.83-18.85-13.68-8-27.67-15.34-43.13-19.2-15.1-3.77-30.35-6.86-46.03-7.05-3.36-.04-6.61.48-9.9.94-1.02.04-2.05.08-3.07.13-.94.04-1.88.07-2.82.11-2.4-.35-5.18.05-6.15-3.12,3.62-1.22,7.24-2.44,10.86-3.65.48.14.97.44,1.42.38,15.33-1.86,30.53-.88,45.64,2.07,1.73.34,3.36.42,4.02-1.73.37-.35.74-.7,1.1-1.04.57,1.45-.6,3.41,2.19,4.15,22.72,5.98,42.5,18.27,62.67,29.69.47.82,1.19,1.13,2.11,1.02,0,0-.05-.02-.05-.02.35,1.7,2.2,1.8,3.11,2.9.4.79,1.08,1.08,1.92,1.1h0c.41.29.82.58,1.22.87.61.34,1.22.67,1.84,1.01.41.81,1.11,1.1,1.96,1.1,0,0,0,0,0,0,.28,1.96,1.6,2.06,3.14,1.78v.03c.33.94,1.04,1.18,1.94,1.07h0c.4.87,1.11,1.11,2,.99h0c.39.89,1.11,1.12,2,1.01h0c.38.88,1.09,1.13,1.98,1.04h.03c.34,2.72,2.36,1.94,4.03,1.91h.08c-.03,6.31-4.68,2.53-7.24,3.3,0,0-.06-.03-.05-.03-.4-.84-1.1-1.06-1.96-.95,0,0-.05-.03-.05-.03-.41-.84-1.11-1.06-1.97-.91Z" fill="#f5ac39" stroke-width="0"/><path d="m142.02,51.5c-.66,2.16-2.29,2.07-4.02,1.73-15.11-2.95-30.31-3.93-45.64-2.07-.45.05-.95-.24-1.42-.38,3.12-11.14,7.24-21.89,12.27-32.31,1.47-3.05,2.87-4.56,5.39-1.18,9.07,12.13,20.09,22.31,31.67,31.94.72.6,1.18,1.5,1.76,2.26Z" fill="#43282d" stroke-width="0"/><path d="m120.24,341.28c4.23,1.19,8.47,2.38,12.7,3.57-.52,6.62,1.38,12.72,4.01,18.67.13.5.27,1.01.4,1.52.21.47.41.95.62,1.42,4.5,11.76,8.7,23.64,13.67,35.19,1.44,3.36,2.29,7.64,6.24,9.59-.05.32-.11.64-.18.95-2.19,1.1-.9,2.93-.86,4.43.29,10.62-3.4,19.18-12.74,24.83-8.75,5.29-17.49,3.28-22.23-5.07.11-.56.22-1.12.32-1.67,7.94,7.35,18.63,7.17,25.07-.75,5.33-6.56,7.58-14.03,4.35-22.29-4.75-12.17-9.71-24.25-14.59-36.37-.2-4.7-2.35-8.93-3.3-13.46-.41-1.95-1.92-2.96-3.82-3.51-4.21-1.23-8.51-1.3-12.81-1.02-2.37.16-4.07,1.14-4.04,4,.05,5.15.38,10.23,2.23,15.1,1.3,6.03,2.59,12.05,3.89,18.08-3.73-5.73-3.68-12.62-7.01-18.38-1.06-6.49,1-13.79-4.95-19.01-.19-.17-.13-.63-.19-.95.65-5.43,4.13-8.66,8.56-11.26,1.67-.98,3.1-2.39,4.64-3.6Z" fill="#2f3e51" stroke-width="0"/><path d="m150.92,635.54c.36-.32.73-.93,1.07-.92,5,.19,14.25,8.27,15.45,13.2.37,1.53-.08,2.03-1.38,2.54-1.91.74-3.86.82-5.85.83-12.4.03-24.8.18-37.16-1.02-2.8-.27-5.52-.94-8.12-2.08-.28-1.77,1.62-3.11.96-4.95.21-.25.49-.46.62-.75,5.57-12.04,15.92-12.37,26.95-11.01-2.71,1.91-5.79.7-8.69,1.03-4.89.56-9.57,1.43-11.67,6.78,4.78-1.75,9.4-3.85,14.78-3.3,3.48.36,6.9.89,10.27,1.69,2.01.48,2.86.04,2.76-2.03Z" fill="#43282d" stroke-width="0"/><path d="m78.19,171.97c.29,2.28.78,4.55.84,6.83.07,2.82-1.82,4.32-4.19,3.04-8.15-4.35-16.1-9.08-24.1-13.71-.36-.21-.48-.84-.71-1.28,4.84-2.61,2.06-5-.69-6.17-10.77-4.59-21.65-9.04-33.77-8.2-1.48-.75-2.96-1.49-4.44-2.24,8.36-3.53,16.62-1.18,24.77.72,10.51,2.45,20.71,5.9,29.96,11.68.74.46,1.39.88,2.26.49,3.36,2.95,6.72,5.89,10.08,8.84Z" fill="#43282d" stroke-width="0"/><path d="m75.2,389.09c2.13-4.51,6.45-6.89,9.91-10.08,6.41-5.89,13.09-11.49,20.68-15.87,1.28,4.65.02,9.7,2.3,14.19l-.13,4.73c-5.68,4.09-11.24,8.29-13.87,15.17-6.04-3.31-12.26-6.21-18.89-8.15Z" fill="#f27f45" stroke-width="0"/><path d="m75.2,389.09c6.63,1.94,12.85,4.83,18.89,8.15,1.6,2.56,4.11,4.13,6.39,5.98,5.31,4.29,5.28,4.33,8.74-1.25.53-.85,1.06-1.66,2.21-1.68,2.61,9.1,5.8,18.08,5.87,27.7-1.82,5.22-1.26,10.83-2.52,16.15-.19.09-.37.07-.54-.06-3.32-11.38-7.07-22.53-16.36-30.73.1-1.45.6-2.99-.82-4.14l-1.17-3.87c-2.42-6.74-11.79-12.15-20.8-12.02-1.09-.15-1.84-.73-2.22-1.78.45-1.13,1.27-1.9,2.33-2.45Z" fill="#a52c2d" stroke-width="0"/><path d="m243.89,17.67c.2,2.97-1.83,2.71-3.67,2.37-27.32-4.98-52.92.78-77.58,12.41-1.79.84-3.48,2.01-5.62,1.73.72-.88,1.43-1.77,2.15-2.65.42-.37.84-.74,1.25-1.11,2.24-1.64,4.48-3.29,6.71-4.93.65-.4,1.29-.79,1.94-1.19,0,0,0,0,0,0,.38-.3.77-.6,1.15-.9,0,0-.07.08-.07.08.85-.03,1.58-.3,2.01-1.11,0,0-.05.02-.05.02.5-.3.99-.6,1.49-.9,2.04-.28,3.75-1.34,5.48-2.35.46-.23.92-.46,1.37-.7,1.21-.43,2.42-.86,3.62-1.28.5-.22.99-.45,1.49-.68,1.59,0,3.12-.26,4.48-1.16.96.09,1.86,0,2.55-.78.82-.11,1.64-.22,2.46-.33,1.74.09,3.5.26,5.02-.89.66-.05,1.33-.11,1.99-.16,4.02.06,8.05.42,11.98-.84,8.48.57,16.95,1.23,25.12,3.83,1.57.51,3.13,1.01,4.7,1.52Z" fill="#f5ac39" stroke-width="0"/><path d="m80.49,104.09c4.49,1.5,8.27,4.18,11.92,7.08,1.85,9.29,5.93,17.29,13.51,23.24.09.51.18,1.03.28,1.54-2.88,2.33-4.14,6.28-7.81,7.83-11.83-10.59-17.05-24.15-17.9-39.69Z" fill="#261825" stroke-width="0"/><path d="m116.77,502.94c-1.79.28-3.47.79-4.71,2.24-2.45.31-4.23-1-5.95-2.46,0-1.17-.02-2.33-.02-3.5q-.01-6.07,5.21-3.55c3.3,1.59,6.65-.16,6.68-3.96.04-6.62.69-13.27-.79-19.88-.6-2.69-1.61-3.85-4.29-3.46,0,0,.06-.04.06-.04.04-2.13,0-4.26.13-6.38.39-5.76-1.35-11.79,2.16-17.15,1.07.5,2.15,1.01,3.22,1.51.57.98,1.14,1.95,1.71,2.93-1.51,1-5.98-3.18-4.72,2.3,1.19,5.12,2.98,10.18,5.69,14.8,1.21,2.06,2.93,3.47,5.29,2.69,3.04-1,.94-3.26.81-5.02-.05-.66,0-1.32,0-1.98,3.48,3.24,4.48,6.87,1.78,11.1-2.35.85-7.03-1.61-5.92,4.17l.59,3.59c-.48.62-1.43,1.3-1.37,1.86.84,7.23-2.57,13.29-5.21,19.56-.16.19-.28.41-.36.65Z" fill="#261825" stroke-width="0"/><path d="m112.91,468.36c2.69-.39,3.69.77,4.29,3.46,1.48,6.61.83,13.26.79,19.88-.03,3.8-3.37,5.56-6.68,3.96q-5.22-2.52-5.21,3.55c0,1.17.01,2.33.02,3.5-2.6-.36-3.67-2.18-4.72-4.37-3.28-6.87-3.44-14.15-3.22-21.52,3.18,1.77,4.2,5.38,6.64,7.82,2.66,2.66,4.26,2.19,5.04-1.27,1.13-4.98,2.04-10.01,3.04-15.02Z" fill="#43282d" stroke-width="0"/><path d="m239.19,16.14c-8.17-2.6-16.64-3.26-25.12-3.83-.05-.65-.09-1.3-.14-1.95.36-2.36,1.04-4.54,3.22-5.91,2.76,1.76,5.83.82,8.75.86,7.13.11,14.22-.18,21.11,2.53,2.32.91,5.26.24,7.92.29-.53,1.36-1.63,2.77-1.51,4.07.49,5.35-2.59,4.13-5.72,3.55-2.82-.52-5.75-1.3-8.51.38Z" fill="#db4f3d" stroke-width="0"/><path d="m123.1,639.17c2.1-5.35,6.78-6.22,11.67-6.78,2.9-.33,5.98.88,8.69-1.03,0,0,.26.01.26.01,1.56,2.85,4.64,3.05,7.2,4.15.09,2.07-.75,2.51-2.76,2.03-3.37-.8-6.8-1.33-10.27-1.69-5.39-.55-10.01,1.55-14.78,3.3h0Z" fill="#a52c2d" stroke-width="0"/><path d="m108.08,377.34c-2.28-4.48-1.02-9.54-2.3-14.19.82-2.27,0-4.83,1.26-7.01.06.32,0,.78.19.95,5.95,5.23,3.88,12.53,4.95,19.01-1.36.41-2.73.82-4.09,1.24Z" fill="#445a6c" stroke-width="0"/><path d="m80.07,54.43c.97,3.17,3.75,2.77,6.15,3.12-6.01,3.12-12.71,1.43-18.98,2.7,3.87-2.84,8-5.1,12.83-5.82Z" fill="#f27f45" stroke-width="0"/><path d="m153.09,37.68c-.05,1.94-.67,3.38-2.93,3.4.35-1.68,1.4-2.75,2.93-3.4Z" fill="#f5ac39" stroke-width="0"/><path d="m148.06,43.61c.03,1.34-.21,2.48-1.89,2.52.04-1.28.66-2.13,1.89-2.52Z" fill="#f5ac39" stroke-width="0"/><path d="m149.89,41.39c.06,1.09-.46,1.71-1.54,1.83.15-.92.75-1.46,1.54-1.83Z" fill="#f5ac39" stroke-width="0"/><path d="m156.02,35.29c-.53.33-1.07.65-1.6.98.12-1,.95-.85,1.6-.98Z" fill="#f5ac39" stroke-width="0"/><path d="m156.99,34.23c-.3.33-.59.66-.89.98.3-.33.59-.66.89-.98Z" fill="#f5ac39" stroke-width="0"/><path d="m286.23,638.29c-1.46-5.3-2.92-10.59-4.38-15.89,14.41-3,28.82-6.01,43.24-8.97,1.28-.26,2.64-.13,3.96-.17.3,9.12-.46,18.39,3.93,26.9.37.71.92,1.33,1.38,2-.12.32-.16.64-.14.98-3.31-1.27-4.94-5.72-9.34-4.92-9.06-6.03-23.36-5.59-29.63.91-3.85.04-4.68,5.38-8.77,5,.07-1.11.15-2.23.22-3.34.01-.43.03-.86.04-1.29.26-.58.08-.99-.52-1.21Z" fill="#261825" stroke-width="0"/><path d="m324.89,638.22c4.4-.81,6.03,3.65,9.34,4.92.78.42.94,1.16.99,1.95-.33.54-1.06,1.24-.92,1.6,2.14,5.53-1.12,6.72-5.58,7.83-10.84,2.72-21.63,1.61-32.42.18-5.04-.67-10.05-1.81-10.22-8.52.14-.68.27-1.36.41-2.04,4.09.38,4.92-4.96,8.77-5,.44.15.96.54,1.31.42,8.73-2.93,17.46-3.6,26.22-.16,1.18.46,1.9.11,2.11-1.18Z" fill="#43282d" stroke-width="0"/><path d="m286.07,646.18c.17,6.71,5.18,7.86,10.22,8.52,10.79,1.43,21.58,2.55,32.42-.18,4.46-1.12,7.72-2.3,5.58-7.83-.14-.36.59-1.06.92-1.6,6.92,11.45,5.49,14.4-7.53,16.12-11.63,1.54-23.18,1.31-34.6-1.33-9.19-2.12-10.49-4.95-7.01-13.71Z" fill="#261825" stroke-width="0"/><path d="m283.04,101.27c.36-18.4,5.91-34.39,21.25-45.86,1.31-.98,2.48-2.13,3.71-3.2,5.33-.85,9.24-4.58,13.84-6.89,17-8.57,33.77-17.57,49.81-27.87,3.63-2.33,6.03-1.45,7.28,2.81.87,2.96,1.34,6.03,1.99,9.04-.11.09-.32.22-.31.28.06.24.2.45.31.68.52,1.3,1.5,2.49.99,4.05-1.22,1.26-.87,2.76-.61,4.23.97,5.54,1.92,11.09,1.75,16.74-.4,12.9.38,25.76-1.76,38.7-3.23,19.58-11.24,36.3-25.59,49.86-1.84,1.74-4.06,5.03-7.79,3.03,5.91-6.84,10.45-14.41,13.3-23.07,5.56-16.9,5.47-34.26,4.76-51.71.13-.22.12-.44-.03-.65-.06-1.76-.13-3.51-.19-5.27-.23-2.33-.46-4.67-.7-7-1.2-3.53-3.58-1.55-5.3-.9-15.94,6-30.71,14.21-44.48,24.21-9.67,7.02-16.68,16.06-20.91,27.26-.85,2.24-.97,5.96-3.64,5.82-2.96-.16-2.7-4.03-3.71-6.4-1.15-2.7.08-6.65-3.96-7.9Zm69.01-66.46c-14.67,7.28-29.45,14.1-44.12,21.14-4.34,2.08-7.86,5.67-9.66,10.55,19.64-8.21,38.6-16.82,53.78-31.69Z" fill="#43282d" stroke-width="0"/><path d="m347.9,146.89c3.73,1.99,5.95-1.29,7.79-3.03,14.35-13.56,22.36-30.28,25.59-49.86,2.14-12.95,1.35-25.8,1.76-38.7.18-5.65-.78-11.2-1.75-16.74-.26-1.48-.6-2.97.61-4.23,4.86,19.6,7.4,39.46,6.4,59.69-.09,1.82-.09,3.65-.13,5.47-.23.18-.24.37-.03.57-1.77,14.38-4.3,28.46-12.01,41.19-5.65,9.33-13.34,16.11-22.77,21.23-.95.51-2.35.59-2.59,2.04-1.92.4-3.84.79-5.75,1.22-7.9,1.79-15.81,2.84-23.8.49.67-2.31,1.34-4.61,2.01-6.92.64-.12,1.29-.24,1.94-.36,5.52-1.11,10.79-2.77,15.18-6.52,3.04-1.14,4.87-3.93,7.55-5.55Z" fill="#261825" stroke-width="0"/><path d="m321.23,166.23c7.99,2.35,15.9,1.29,23.8-.49,1.91-.43,3.83-.81,5.75-1.22,4.22,10.57,6.37,21.73,9.14,32.71.6,2.39,2.39,4.41,2.06,7.04-8.08-8.99-14.89-19.11-23.83-27.33-4.92-4.54-10.32-8.38-17.41-8.72.16-.66.32-1.32.48-1.98Z" fill="#c4552d" stroke-width="0"/><path d="m273.96,27.29c-6.07.56.61,3.64-1,5.08-2.25-.14-3.08-2.26-4.67-3.32-.69-.63-1.37-1.27-2.05-1.9-.6-.78-1.19-1.58-2.29-1.64-.12,0-.37.23-.35.3.29,1.06,1.11,1.52,2.1,1.78.34,1.05.95,1.82,2.07,2.1.05,2.5,2.46,3.57,3.39,5.54-.5.04-.99.08-1.49.12-1.96-.38-3.15-1.84-4.07-3.34-1.58-2.57-3.84-4.46-5.91-6.55-1.24-1.25-2.3-1.22-2.64.81-2.51-3.92-6.93-5.6-10.19-8.63,4.32.36,8.49,2.96,12.96.82,2.45,5,8.13,5.01,12.02,7.77.64.45,1.42.71,2.13,1.06Z" fill="#c4552d" stroke-width="0"/><path d="m259.81,18.45c-4.47,2.13-8.65-.47-12.96-.82-.98.01-1.97.02-2.95.04-1.57-.51-3.14-1.01-4.7-1.52,2.76-1.68,5.69-.9,8.51-.38,3.13.58,6.21,1.8,5.72-3.55-.12-1.3.97-2.71,1.51-4.07.05-.63.11-1.26.16-1.89,0,0,.42.03.42.03l.4-.1c5.68,4.52,6.07,5.75,3.9,12.28Z" fill="#a52c2d" stroke-width="0"/><path d="m277.98,29.29c-1.54-.16-3.53.56-3.9-1.94,1.49.26,2.81.88,3.9,1.94Z" fill="#c4552d" stroke-width="0"/><path d="m279.93,30.29c-.61-.31-1.23-.63-1.84-.94.76.02,1.45.2,1.84.94Z" fill="#c4552d" stroke-width="0"/><path d="m255.91,6.18l-.4.1s-.42-.03-.42-.03c-.3-.45-.61-.9-.91-1.35.58.43,1.15.85,1.73,1.28Z" fill="#db4f3d" stroke-width="0"/><path d="m380.92,30.27c-.11-.22-.24-.44-.31-.68-.02-.06.2-.18.31-.28.17.32.17.64,0,.96Z" fill="#261825" stroke-width="0"/><path d="m281.1,31.24c-.33-.29-.67-.58-1-.87.33.29.67.58,1,.87Z" fill="#c4552d" stroke-width="0"/><path d="m388.14,100.05c-.21-.21-.2-.4.03-.57,0,0,.29.3.29.3l-.32.27Z" fill="#e7c091" stroke-width="0"/><path d="m413.02,497.55c4.45-5.53,6.46-12.54,11.11-18.18,1.5,9.68,1.16,19.27.2,29.69,3.99-4.21,5.44-9.02,7.93-13.2,1.47-2.47,2.03-5.78,5.53-6.57.13.63.26,1.25.39,1.88,0,1.02.01,2.04.02,3.06-.11,2.66-.21,5.33-.32,7.99-.13,1.03-.27,2.07-.4,3.1-.53,1.93-.99,3.87-.59,5.9-.16,1.02-.32,2.04-.48,3.06-.06.63-.12,1.25-.19,1.88-.41.68-.82,1.36-1.22,2.04-2.46,2.94-4.48,6.15-6.22,9.56-10,19.48-25.17,32.38-47.15,35.97-13.24,2.16-24.44-1.64-26.79-17.02-2-13.14-6.21-25.73-12.81-37.4-.1-2.94-.2-5.88-.3-8.82,4.02.27,7.72,1.61,11.39,3.19,12.17,5.23,20.1,14.77,26.61,25.81,3.13,5.29,3.71,5.38,8.79,2.03,12.47-8.23,19.58-20.31,24.5-33.97Z" fill="#dc702d" stroke-width="0"/><path d="m342.03,509.31c6.6,11.67,10.81,24.25,12.81,37.4,2.34,15.38,13.54,19.19,26.79,17.02,21.98-3.59,37.16-16.5,47.15-35.97,1.75-3.41,3.77-6.62,6.22-9.56-.79,9.64-4.25,18.53-7.89,27.35-4.27,10.32-9.59,20.24-17.48,28.05-11.6,11.48-24.84,20.69-41.57,23.55-6.77,1.16-13.36,2.92-20.36,1.08-2.23-.58-4.11-1.89-6.35-2.24-1.76-1.03-3.52-2.06-5.29-3.09.02-7.83,2.18-15.38,3.02-23.1,2.19-20.11,3.33-40.26,2.94-60.49Z" fill="#c4552d" stroke-width="0"/><path d="m413.02,497.55c-4.92,13.67-12.02,25.75-24.5,33.97-5.08,3.35-5.66,3.27-8.79-2.03-6.52-11.04-14.45-20.58-26.61-25.81-3.67-1.58-7.37-2.92-11.39-3.19-1.07-5.87-1.54-11.79-1.71-17.74,14.81-9.59,27.07-21.9,38.01-35.62,2.31-.21,3.38.81,3.32,3.15-.1,3.82-.13,7.62-.74,11.43-.5,3.14-2.21,6.22-1.08,10.04,7.3-5.45,11.7-12.98,17.45-20.36.9,11.38-.91,21.57-1.22,31.86,6.51-7.82,11.65-16.17,13.56-27.28,2.94,6,2.32,11.36,3.7,16.28,0,8.43,0,16.86,0,25.3Z" fill="#f5ac39" stroke-width="0"/><path d="m365.1,388.19c14.71,9.33,20.31,23.99,10.02,40.5-8.08,12.97-19.69,21.75-33.67,27.6-2.13.89-4.18,1.95-6.27,2.93-4.82,1.74-9.6,3.6-14.46,5.2-3.91,1.28-7.16,3.35-9.59,6.69-2.76,2.62-5.96,4.78-8.16,7.97-2.13,1.79-4.33,3.5-6.38,5.38-2.32,2.12-4.17,1.76-5.37-.98-2.3-5.23-4.51-10.51-5.28-16.25,1.19-7.46,1.72-15.03,3.75-22.34,1.17-2.17,2.34-4.35,3.51-6.52,1.09,6.33,3.61,8.71,8.08,7.22,15.1-5.02,30.36-9.67,44.44-17.29,7.72-4.18,15.61-8.17,22.41-13.81,4.46-3.69,5.11-8.34,2.68-14.48-2.1-5.31-5.94-8.05-11.32-7.8-7.06.33-13.08,3.81-20.29,6.65,1.97.27,2.94.4,3.91.53-.26,1.05-.86,1.67-2,1.81-5.1.61-9.65,2.78-14.16,5.05,4.54-8.43,12.54-12.49,20.79-15.98,5.47-2.31,11.21-4.33,17.34-2.07Z" fill="#dc702d" stroke-width="0"/><path d="m340.02,482.75c.17,5.95.64,11.87,1.71,17.74.1,2.94.2,5.88.3,8.82.39,20.23-.75,40.39-2.94,60.49-.84,7.72-3.01,15.27-3.02,23.1-2.16,4.87-7.01.65-10.15,3.28,5.86-1.77,4.42-5.71,4.37-9.98-.16-13.96-1.24-27.82-3.26-41.61-1.44-9.82-3.27-19.59-5.18-29.33-.9-4.6-4.83-7.25-9.87-5.86-8.19,2.26-14.16-2.75-20.96-5.17,1.71-.64,3.5-1.13,5.11-1.96,5.99-3.09,11.95-5.87,15.38-12.58,2.79-5.47,2.56-10.85,2.35-16.47,7.48.5,14.97,2.36,22.43-.15,2.02.82,2.85,2.25,2.84,4.5,0,1.72-.39,3.63.9,5.17Z" fill="#2f3e51" stroke-width="0"/><path d="m280.02,344.11c7.71-.51,14.48-4.03,21.53-6.68,2.77-1.04,5.5-2.19,8.25-3.29,3,3.59,7.79,4.34,11.29,7.17,2.21,1.79,5.12,2.85,5.79,6.09-1.07.56-2.12.41-3.31.34-3.01-.18-6.02.14-7.06,3.82-.51.89-1.09,1.7-2.18,1.94-.35.31-.7.61-1.05.92-.33.34-.66.67-.99,1.01-.3.38-.59.75-.89,1.13.04.28-.02.53-.19.76-.32.37-.63.73-.95,1.1-1.04,1.44-1.3,3.08-1.22,4.81l.03-.03c-.62.16-.89.58-.85,1.21-.14.16-.22.35-.23.56-1.61.52-2.07,1.72-1.94,3.27l.02-.04c-.9.43-1.13,1.18-1.03,2.11-.31.63-.62,1.26-.94,1.88-.23.38-.46.76-.69,1.14l-.11.22c-.95.18-1.31.95-1.65,1.7-8.43,18.43-16.3,37.1-21.08,56.84-1.19,4.9-1.92,10.55,1.58,15.35-.88,2.98-3.47,3.84-5.97,4.81-.39-4.41-.78-8.82-1.18-13.31-14.43,6.73-17.38,7.33-25.65,5.31-11.33-2.78-16.69-9.09-15.89-19.57,1.41,5.06,3.39,8.98,7.45,11.47,11.53,7.05,29.57,6.93,36.64-11.27,7.28-18.72,13.81-37.8,24.19-55.19.53-.9,1.74-2.03.56-3.05-.61-.53-1.87-.32-2.84-.44-1.9-.23-2.98,1.24-4.33,2.13.05-1.91-.58-3.49-2.78-3.04-9.74,1.98-19.87,1.53-29.39,4.79.36-2.67,2.19-4.61,3.36-6.89,4.23-6.03,8.47-12.05,12.7-18.08l1.02-1.01Z" fill="#2f3e51" stroke-width="0"/><path d="m335.3,362.33c6.77,5.06,14.23,9.11,20.55,14.86,2.43,2.21,4.71,4.51,6.99,6.85-2.79.31-5.59.55-8.37.93-10.13,1.36-18.61,6.64-27.27,11.5-7.44-4.38-12.35-11.39-18.2-17.42-.71-.74-.47-1.42.03-2.2,5.44-8.47,11.35-16.17,23.1-14.71,1.03.51,2,1.83,3.16.19Z" fill="#f27f45" stroke-width="0"/><path d="m327.21,396.47c8.65-4.86,17.14-10.15,27.27-11.5,2.78-.37,5.58-.62,8.37-.93,1.44,1.01,1.96,2.52,2.26,4.15-6.13-2.26-11.87-.24-17.34,2.07-8.25,3.49-16.25,7.55-20.79,15.98-1.05.77-.88,1.9-.9,2.98-8.05,6.68-16.1,13.37-24.15,20.05-6.05-17.09-3.57-33.35,4.66-49.78.85,3.31-.66,5.49-1.37,7.77-1.11,3.54-1.08,6.97.99,9.99,2.05,3,4.56,5.68,6.89,8.48,1.73,2.08,3.62,1.76,4.96-.2,2.48-3.64,6.31-5.83,9.16-9.05Z" fill="#a52c2d" stroke-width="0"/><path d="m336.28,473.08c-7.46,2.51-14.95.65-22.43.15-.9-.71-1.81-1.42-2.72-2.12,2.43-3.33,5.67-5.41,9.59-6.69,4.87-1.59,9.65-3.45,14.46-5.2.36,4.62.73,9.24,1.09,13.85Z" fill="#a52c2d" stroke-width="0"/><path d="m316.5,351.57c1.04-3.68,4.05-4,7.06-3.82,1.19.07,2.25.22,3.31-.34-.05,3.34,2.88,5.55,3.3,8.7-.23.23-.46.46-.69.69-1.41-1.08-2.85-2.13-4.22-3.25-2.6-2.12-5.25-3.92-8.76-1.98Z" fill="#43282d" stroke-width="0"/><path d="m335.3,362.33c-1.15,1.65-2.13.33-3.16-.18-.19-.59-.37-1.19-.56-1.79.53-.06,1.07-.11,1.6-.17.71.71,1.41,1.43,2.12,2.14Z" fill="#a52c2d" stroke-width="0"/><path d="m333.18,360.19c-.53.06-1.07.11-1.6.17-.33-.29-.65-.58-.98-.87l-1.12-2.68c.23-.23.46-.46.69-.69,1.5.99,2.82,2.12,3.01,4.08Z" fill="#43282d" stroke-width="0"/><path d="m280.02,344.11c-.34.34-.68.67-1.02,1.01-9.36,1.87-18.67,4.06-28.1,5.51-6.88,1.06-13.77,2.96-20.88,1.77,5.09-1.38,10.2-2.72,15.28-4.16,18.76-5.32,36.04-13.12,47.76-29.67,6.6-9.33,10.67-19.51,8.24-31.3.13-.94.25-1.89.38-2.83,6.15-1.91,9.84-7.15,14.54-10.96,14.05-11.39,29.76-18.56,47.88-20.16-2.62,14.19-10.55,25.62-19.23,36.61-17.34,21.94-41.38,34.4-65.79,46.29-2.52,1.23-6.72,2.18-.52,4.47,1.48.55,1.48,2.07,1.47,3.43Z" fill="#dc702d" stroke-width="0"/><path d="m190.16,297.39c-17.91,12.63-38.39,16.23-59.68,16.81-5.36.15-6.39-1.72-4.22-6.68.59-.17,1.17-.34,1.76-.5,4.22.26,8.45.61,12.65-.24,14.83-.98,28.77-4.83,41.48-12.73,4.48-2.78,7.96-6.53,10.79-10.92.59-.92,1.73-1.87.83-3.09-.7-.95-1.84-.38-2.79-.26-2.67.31-5.43.89-6.76-2.46,10.31-6.3,20.34-3.07,26,1.42,3.54,2.81,3.43,4.56-.14,7.07-2.47-1.58-5.03-4.52-7.39-4.37-2.73.18-2.49,4.77-4.47,6.93-2.2,2.41-4.19,5.01-6.27,7.54-.45.37-.89.73-1.34,1.09-.24.02-.39.14-.45.38Z" fill="#43282d" stroke-width="0"/><path d="m210.08,285.82c3.57-2.52,3.68-4.27.14-7.07-5.66-4.49-15.69-7.72-26-1.42-4.63-2.42-5.03-6.4-.94-9.55,7.77-5.98,27.86-6.14,35.52.03,4.44,3.58,6.15,8.65,5.04,14.26-1.22,6.15-7.46,7.75-13.76,3.75Z" fill="#e7c091" stroke-width="0"/><path d="m90.93,167.6c2.66-2.18,4.25-5.42,7.41-7.16,4.32-2.38,7.55-.78,7.75,4.12.09,2.31-.08,4.63-.14,6.95-5.21-.53-10.1-2.25-15.02-3.9Z" fill="#f27f45" stroke-width="0"/><path d="m140.67,306.78c-4.2.85-8.43.5-12.65.24,4.19-1.42,8.42-.82,12.65-.24Z" fill="#e7c091" stroke-width="0"/><path d="m190.61,297.01c.45-.36.89-.73,1.34-1.09-.15.73-.59,1.09-1.34,1.09Z" fill="#e7c091" stroke-width="0"/><path d="m340.35,152.44c-4.38,3.75-9.66,5.41-15.17,6.52.51-2.41,1.34-4.81,1.46-7.24.37-7.83,1.33-15.85-4.51-22.46-6.23-7.68-13.84-7.74-21.43-.12-.92.92-1.71,1.96-2.56,2.95.02-5.71,1.32-11.17,3.37-16.45,6.86-17.63,19.79-29.98,35.33-39.86,9.2-5.85,18.8-11.08,28.22-16.6.23,2.33.46,4.67.7,7-1.26.11-2.19.81-2.84,1.82-8.74,13.45-19.37,25.66-26.69,40.05-4.9,9.63-10.02,19.09-1.68,29.83,3.12,4.02,2.83,10.07,5.81,14.54Z" fill="#ef947f" stroke-width="0"/><path d="m282.09,126.27c1.69-.05,3.38-.1,5.06-.15.2.34.39.68.58,1.02-3.44,8.63-11.76,10.91-19.12,13.89-8.06,3.26-16.75,4.03-25.48,2.72-.88-.13-1.63-.16-2.3.48-1.82-1.68-3.45-3.66-5.49-5-4.63-3.04-9.58-1.7-12.04,2.94-16.67.28-32.85-3.28-49.08-6.38-9.26-1.77-18.47-3.78-27.46-6.68-2.14-5.49-5.54-6.34-12.62-3.16-4.15-1.29-8.31-2.59-12.46-3.88.06-.67.12-1.34.18-2.02.73-.33,1.46-.66,2.19-.99,1.22,1.64,3.02,1.23,4.61,1.14,3.3-.2,6.58-.73,9.88-.92,13.34-.74,26.46,1.34,39.59,3.19,21.32,3,41.74,10.62,63.29,12.36,14.37,1.16,28.67,1.67,40.66-8.57Z" fill="#dc702d" stroke-width="0"/><path d="m210.13,182.51c.48-6.63,1.11-13.24,4.63-19.14,5.92-9.92,16.14-10.25,21.45-.13,6.91,13.17,6.38,26.66-1.57,39.31-4.89,7.77-14.17,7.54-19.37-.04-4.12-6-4.89-12.93-5.14-20Zm13.32-11.27c-.07-3.07-1.31-5.35-4.63-5.27-3.76.08-4.41,3.13-4.47,6-.05,2.48,1.16,4.9,3.97,4.8,3.15-.12,5.11-2.15,5.14-5.53Z" fill="#261825" stroke-width="0"/><path d="m287.74,127.15c-.19-.34-.39-.68-.58-1.02-2.41-8.11-5.46-16.12-4.12-24.85,4.03,1.25,2.81,5.2,3.96,7.9,1.01,2.37.75,6.25,3.71,6.4,2.67.14,2.8-3.58,3.64-5.82,4.23-11.19,11.24-20.24,20.91-27.26,13.78-10,28.54-18.21,44.48-24.21,1.72-.65,4.11-2.63,5.3.9-9.42,5.51-19.02,10.74-28.22,16.6-15.53,9.88-28.46,22.23-35.33,39.86-2.06,5.28-3.35,10.74-3.37,16.45-1.21,1.53-1.61,3.68-3.48,4.67-2.67-2.96-5.02-6.12-6.91-9.61Z" fill="#261825" stroke-width="0"/><path d="m115.92,162.55c1.87-10.32,7.53-20.27,18.58-26.41,6.5-3.61,12.6.48,11.39,7.81-2,12.04-8.44,21.62-19.13,27.69-6.44,3.65-10.98.39-10.84-9.08Zm21.08-12.19c3.12-.28,4.62-2.42,4.99-5.14.34-2.55-1.61-3.46-3.83-3.33-3.25.2-4.55,2.63-4.79,5.37-.18,2.11,1.41,3.18,3.63,3.1Z" fill="#261825" stroke-width="0"/><path d="m259.86,220.29c-2.77-.3-6.29-1.03-8.02-4.57-2.12-4.33-4.23-8.87-1.58-13.74,2.49-4.58,6.41-5.58,10.81-2.73,3.08,2,5.72,4.57,7.49,7.87,3.46,6.45-.57,13.15-8.69,13.16Z" fill="#f27f45" stroke-width="0"/><path d="m223.32,142.19c2.46-4.65,7.4-5.98,12.04-2.94,2.04,1.34,3.67,3.31,5.49,5,.14,1.6,1.11,3.76-.39,4.63-1.8,1.05-2.81-1.19-3.84-2.35-3.61-4.09-8.57-3.83-13.3-4.34Z" fill="#261825" stroke-width="0"/><path d="m322.13,129.26c5.84,6.61,4.88,14.62,4.51,22.46-.12,2.43-.95,4.83-1.46,7.24-.65.12-1.3.24-1.94.36,1.21-10.08,1.59-20.12-1.11-30.05Z" fill="#dc702d" stroke-width="0"/><path d="m134.15,125.97c7.07-3.18,10.47-2.33,12.62,3.16-5.68-2.04-10.87.31-16.22,2.65-.06-3.41,2.24-4.28,3.6-5.81Z" fill="#261825" stroke-width="0"/><path d="m121.87,120.07c-.06.67-.12,1.35-.17,2.02-3.88,3.03-6.68,7.42-11.54,9.23l-.14-.11c.62-3.82,4.33-5.45,6.03-8.51.36-.16.71-.32,1.06-.48,1.12.2,1.53-.74,2.15-1.35.87-.26,1.74-.53,2.61-.79Z" fill="#e7c091" stroke-width="0"/><path d="m106.2,135.96c-.09-.51-.18-1.03-.28-1.54.75-1.08,1.93-1.12,3.06-1.27h0c-.62,1.24-1.5,2.23-2.78,2.81Z" fill="#e7c091" stroke-width="0"/><path d="m110.15,131.32c-.06.82-.39,1.48-1.17,1.84,0,0,0,0,0,0,.34-.65.69-1.3,1.03-1.94,0,0,.14.11.14.11Z" fill="#e7c091" stroke-width="0"/><path d="m295.12,368.33c1.36-.89,2.43-2.36,4.33-2.13.97.12,2.23-.09,2.84.44,1.18,1.02-.03,2.16-.56,3.05-10.37,17.38-16.91,36.46-24.19,55.19-7.07,18.19-25.11,18.32-36.64,11.27-4.06-2.48-6.03-6.41-7.45-11.47-.81,10.48,4.55,16.79,15.89,19.57,8.27,2.02,11.22,1.42,25.65-5.31.4,4.49.79,8.9,1.18,13.31-2.55,4.05-5.16,8.05-7.61,12.16-1.33,2.24-1.98,4.62.64,6.58,1.17,2.12,2.8,4.21,5.31,3.73,4.69-.9,4.2,1.6,4.05,4.76-.39,8.19-.12,16.27,7.34,21.87.69,4.68,3.81,7.2,7.92,8.71,3.51,1.29,3.25,2.66.82,5.15-20.22,20.7-44.72,32.79-73.24,37.19-25.55,3.95-49.91.54-73.03-11.11-10.55-5.31-19.01-13.23-26.66-22.11-4.05-4.7-5.14-10.27-4.95-16.25.08-.24.2-.46.36-.65,4.28-.86,6.47-3.7,7.3-7.78.94-4.6,1.17-9.18-.72-13.64-.2-1.2-.4-2.39-.59-3.59,2.72-.33,6.27.52,5.92-4.17,2.71-4.23,1.7-7.86-1.78-11.1,0,0-.01.16-.01.16.1-.97-.09-1.81-1.07-2.28.08-.25.04-.48-.1-.7.11-.91-.22-1.64-.93-2.19-.95-3.04-2.74-5.55-4.96-7.78-.57-.98-1.14-1.95-1.7-2.92.22-3.82.42-7.64.63-11.47.92.51,1.84,1.03,2.76,1.54,4.74,8.34,13.48,10.36,22.23,5.07,9.33-5.65,13.03-14.21,12.74-24.83-.04-1.5-1.33-3.33.86-4.43,23.35-2.66,46.78-3.28,70.12-.82,7.89.83,12.13-1.05,15.55-8.12,4.96-10.27,11.99-19.46,16.6-29.98.35-.07.71-.14,1.06-.22.34-.31.68-.62,1.02-.93,0,0-.11.02-.11.02.38.03.76.06,1.15.09,3.81-.02,7.57-.32,11.38-.72,6.24-.67,12.29-3.01,18.68-2.3-6.5,12.92-12.98,25.86-19.51,38.76-.91,1.79-1.56,4.58-4.54,2.1-4.57-5.7-10.42-8.25-15.86-6.21-5.36,2.01-9.2,5.65-9.39,11.93-.3.59-.6,1.18-.89,1.76-.87.98-.5,2.2-.65,3.33-.9,6.69,2.06,11.33,7.92,14.04,5.97,2.76,12.07,2.98,17.16-1.87,4.69-4.47,8.66-9.51,5.31-16.64-.87-1.84,0-3.1.78-4.6,5.21-10.01,10.58-19.96,15.42-30.15,2.12-4.45,5.44-8.38,6.24-13.45l-.02.09Zm-56.5,83.16c1.38-.33,2.77-.65,4.15-.98-.2,7.23-.4,14.47-.6,21.7-1.63,6.92-1.79,14.13-4.2,20.89-5.38,9.7-13.88,14.07-24.68,15.44-10.51,1.33-20.91,1.04-31.27-.56-8.59-1.33-17.04-3.37-23.13-10.41-.76-.88-1.4-1.85-2.12-2.76-.71-.9-1.43-1.78-2.15-2.67,1.89,8.97,6.49,15.71,15.13,18.98,15.65,5.94,31.83,6.27,48.12,3.92,12.95-1.87,22.04-9.11,26.35-21.5,4.82-13.87,2.77-28.26,2.19-42.49-.08-1.86-1.04-3.17-3.26-2.73-23.22-.07-46.44-.08-69.66-.23-5.78-.04-11.56-.64-17.34-.69-2.06-.02-5.07-.52-4.78,3.28.94.33,1.85.81,2.82.96,22.36,3.45,44.82,5.5,67.41,2.95,5.69-.64,11.61-.69,17.03-3.1Z" fill="#63838e" stroke-width="0"/><path d="m265.59,610.8c-1.06-4.96-5.83-7.26-8.14-11.32-2.26-3.97-5.16-4.82-10.04-4.58-12.22.58-24.46-.95-36.4-3.78-3.63-.86-5,.1-6.04,3.26-1.48,4.53-3.66,8.86-3.82,13.76-9.31.48-18.34-1.31-27.62-2.78.42-.93.48-1.4.69-1.48q8.12-2.94,1.96-9.11c-7.41-7.42-14.84-14.82-22.21-22.28-1.21-1.23-3.65-2.5-2.47-4.36,1.14-1.78,2.88.46,4.36.84,17.79,4.64,35.42,9.87,53.74,12.36,16.42,2.22,32.65,2.18,48.91-1.06,3.07-.61,5.65-2.78,9.36-2.56-1.81,4.05-4.7,6.9-7.58,9.74-2.95,2.91-3.97,5.25-.63,9.21,4.09,4.84,9.13,8.48,14.19,13.2-3.17.36-5.72.65-8.26.94Z" fill="#2f3e51" stroke-width="0"/><path d="m285.91,501.34c-7.46-5.6-7.73-13.69-7.34-21.87.15-3.16.65-5.66-4.05-4.76-2.51.48-4.14-1.61-5.31-3.73,8.58-3.48,11.73-11.39,15.4-18.87.99-2.01.1-3.47-1.39-4.74.28-.32.56-.64.83-.96,2.01-.07,3.35-2.6,5.66-1.52-2.04,7.32-2.57,14.89-3.76,22.34-3.54,7.05-5.26,14.34-4.38,22.38.57,5.2,2.39,6.69,7.22,4.9,1.33-.49,3.21-.91,3.95.87,2.19,5.26,4.2,2.47,6.21-.04.73-.91,1.06-2.13,2.49-.57,2.62,2.85,3.97.72,5.08-1.58,2.92-6.08,1.82-10.4-3.55-14.11,2.2-3.19,5.4-5.36,8.16-7.97.91.71,1.82,1.42,2.72,2.12.21,5.62.44,11-2.36,16.47-3.43,6.7-9.39,9.48-15.38,12.58-1.61.83-3.4,1.32-5.11,1.96-2.3.1-3.06-2.54-5.1-2.89Z" fill="#261825" stroke-width="0"/><path d="m135.89,605.2c-.07,1.13-.52,1.92-1.79,1.87-1.47-.06-1.95-1.07-2.03-2.32-.07-1.01.5-1.49,1.51-1.43,1.23.07,2.35.27,2.31,1.89Z" fill="#e7c091" stroke-width="0"/><path d="m266.02,616.27c-.43-1.85-3.66-3.52-.35-5.6.12,1.86.23,3.73.35,5.6Z" fill="#2f3e51" stroke-width="0"/><path d="m267.04,619.22c-.87-.82-1-1.9-1.06-3.01,1.25.69.86,1.96,1.06,3.01Z" fill="#2f3e51" stroke-width="0"/><path d="m268,621.64c-.81-.61-.97-1.49-.97-2.43.94.56.86,1.53.97,2.43Z" fill="#2f3e51" stroke-width="0"/><path d="m230.03,352.39c7.1,1.19,13.99-.71,20.88-1.77,9.42-1.45,18.74-3.64,28.1-5.51-4.23,6.03-8.47,12.05-12.7,18.08-18.69,5.2-37.95,6.15-57.14,6.8-23.32.8-46.37-1.8-68.8-8.62-2.25-.68-3.52-.57-3.4,2.14-2.63-5.94-4.53-12.05-4.01-18.67,11.24,2.01,22.28,4.97,33.63,6.49,21.12,2.81,42.25,3.77,63.45,1.06Z" fill="#a52c2d" stroke-width="0"/><path d="m257.03,26.26c.34-2.03,1.4-2.06,2.64-.81,2.07,2.09,4.33,3.97,5.91,6.55.92,1.5,2.11,2.96,4.07,3.34.53,1.21.89,2.53,1.61,3.61,6.67,9.87,9.04,20.82,8.86,32.6-.17,11.24-2.79,22.01-5.62,32.76-1.68,6.38-1.85,6.36-8.36,4.15-3.3-1.12-6.61-2.24-9.86-3.51-11.74-4.61-23.46-9.28-35.19-13.92-.73-.79-1.45-1.58-2.23-2.42,1.46-.7,3.19.17,4.16-1.36,2.57-1.78,5.48-.69,8.22-.93,12.82-1.11,23.75-6.33,32.04-16.05,7.88-9.23,7.14-23.27-1.02-36.15-1.68-2.66-3.49-5.23-5.25-7.85Z" fill="#db4f3d" stroke-width="0"/><path d="m223.04,87.23c-.96,1.53-2.7.66-4.16,1.36.78.84,1.5,1.63,2.23,2.42,0,.4,0,.79.01,1.18-.35.02-.69.04-1.04.06,0,0,0,0,0,0-.65-.37-1.31-.73-1.96-1.1-.61-.34-1.22-.67-1.84-1.01-.41-.29-.81-.58-1.22-.88,0,0,0,0,0,0-.64-.37-1.28-.73-1.92-1.1-.91-1.1-2.76-1.2-3.11-2.9,4.38.34,8.53,2.22,13.01,1.95Z" fill="#c4552d" stroke-width="0"/><path d="m210.09,85.31c-.92.1-1.64-.2-2.11-1.02.84.05,1.63.23,2.11,1.02Z" fill="#c4552d" stroke-width="0"/><path d="m119.26,120.87c-.62.6-1.03,1.54-2.15,1.35-.54-6.54,3.05-11.29,6.99-15.85,8.84-10.23,19.23-17.98,32.85-20.64,4.16-.81,7.56-4.32,12.21-3.5,11.28,5.58,21.18,13.2,30.94,21.01-5.35.62-10.62-.57-15.82-1.26-22.87-3.05-43.92.78-62.62,14.95-1.42,1.07-2.67,1.97-2.39,3.94Z" fill="#43282d" stroke-width="0"/><path d="m110.01,131.21c-.34.65-.69,1.3-1.03,1.94-1.14.15-2.31.19-3.06,1.27-7.58-5.96-11.67-13.95-13.52-23.24,7.36,3.31,14.5,7.13,22.15,9.79.78.27,1.51.7,1.49,1.72-1.7,3.07-5.42,4.7-6.03,8.52Z" fill="#ef947f" stroke-width="0"/><path d="m282.09,126.27c-11.99,10.24-26.29,9.73-40.66,8.57-21.55-1.74-41.98-9.36-63.29-12.36-13.13-1.85-26.26-3.93-39.59-3.19-3.3.18-6.58.72-9.88.92-1.59.1-3.39.5-4.61-1.14,5.13-5.41,12.24-6.41,18.91-7.74,21.49-4.29,42.56-.67,63.44,4.54,10.88,2.71,21.7,5.67,32.55,8.51,4.33,2.48,9.12,2.62,13.92,2.73,0,0,.42.24.42.24.64.1,1.29.19,1.94.29,9.05,1.44,17.92-.63,26.86-1.38Z" fill="#c4552d" stroke-width="0"/><path d="m238.95,124.39c-10.85-2.85-21.67-5.8-32.55-8.51-20.87-5.21-41.94-8.83-63.44-4.54-6.67,1.33-13.78,2.33-18.91,7.74-.73.33-1.46.66-2.19.99-.87.27-1.74.53-2.61.8-.28-1.97.98-2.87,2.39-3.94,18.7-14.17,39.75-18,62.62-14.95,5.2.69,10.47,1.88,15.82,1.26.36.15.72.3,1.07.45.3.19.6.39.91.58,10.14,5.27,20.32,10.46,30.37,15.89,2.46,1.33,4.97,2.39,7.58,3.28-.36.32-.71.64-1.07.96Z" fill="#261825" stroke-width="0"/><path d="m221.13,92.2c0-.39,0-.79-.01-1.18,11.73,4.64,23.44,9.31,35.19,13.92,3.25,1.27,6.55,2.39,9.86,3.51,6.51,2.21,6.68,2.23,8.36-4.15,2.83-10.74,5.45-21.51,5.62-32.76.18-11.78-2.19-22.73-8.86-32.6-.73-1.07-1.08-2.4-1.61-3.61.49-.04.99-.08,1.49-.12,2.65,3.66,5.3,7.33,7.94,10.99,7.12,17.35,6.36,34.9,1.45,52.61-1.01,3.65-1.29,7.51-2.22,11.19-.68,2.67,1.39,3.36,3.39,5.19-7.37.17-13.31-3.14-19.71-3.93-8.91-3.73-17.82-7.46-26.73-11.19,0,0-.08,0-.08,0-1.08-1.18-2.44-1.78-4.02-1.93,0,0-.03.01-.03.01-.41-.83-1.15-1.01-1.98-1.05,0,0,0,0,0,0-.43-.79-1.17-.99-2-1.01,0,0,0,0,0,0-.45-.77-1.18-.98-2-1,0,0,0,0,0,0-.64-.36-1.29-.71-1.93-1.07,0,0-.01-.03-.01-.03-.7-.61-1.4-1.23-2.1-1.84Z" fill="#a52c2d" stroke-width="0"/><path d="m235.27,100.09c8.91,3.73,17.82,7.46,26.73,11.19-5.5,2.82-11.07.51-16.3-.52-6.21-1.22-12.09-4.13-17.66-7.36,2.56-.77,7.21,3.01,7.24-3.3Z" fill="#f27f45" stroke-width="0"/><path d="m279.09,46.21c-2.65-3.66-5.3-7.33-7.94-10.99-.93-1.97-3.33-3.03-3.39-5.54.17-.22.35-.44.53-.65,1.59,1.06,2.42,3.19,4.67,3.33,0,0,.07-.04.07-.04-.02.86.33,1.54,1.03,2.04.26.33.53.65.79.98,1.05,2.21,2.27,4.31,4.15,5.94-.73,1.66,3.02,3.23.09,4.93Z" fill="#f27f45" stroke-width="0"/><path d="m238.95,124.39c.36-.32.71-.64,1.07-.96,4.43.74,8.67,2.12,12.86,3.69-4.8-.11-9.59-.25-13.92-2.73Z" fill="#43282d" stroke-width="0"/><path d="m279,41.28c-1.88-1.63-3.09-3.73-4.15-5.94,3.64.4,3.97,3.12,4.15,5.94Z" fill="#c4552d" stroke-width="0"/><path d="m89.04,57.45c1.02-.04,2.05-.08,3.07-.13-.98,1.17-2.01,1.11-3.07.13Z" fill="#f27f45" stroke-width="0"/><path d="m255.23,127.66c-.65-.1-1.29-.2-1.94-.29.65.1,1.29.2,1.94.29Z" fill="#43282d" stroke-width="0"/><path d="m226.02,102.41c.86-.11,1.56.12,1.96.95-.65-.32-1.31-.64-1.96-.95Z" fill="#f27f45" stroke-width="0"/><path d="m224,101.47c.86-.15,1.56.07,1.97.91-.66-.3-1.31-.61-1.97-.91Z" fill="#f27f45" stroke-width="0"/><path d="m274.06,34.36c-.7-.5-1.05-1.18-1.03-2.04.83.44,1.02,1.19,1.03,2.04Z" fill="#c4552d" stroke-width="0"/><path d="m202.07,104.27c-.3-.19-.6-.39-.91-.58.3.19.6.39.91.58Z" fill="#43282d" stroke-width="0"/><path d="m15.55,152.49c12.12-.84,23,3.62,33.77,8.2,2.75,1.17,5.53,3.56.69,6.17-11.23-2-21.28-7.36-31.85-11.23-1.33-.49-2.89-1.15-2.61-3.14Z" fill="#a52c2d" stroke-width="0"/><path d="m84.05,411.32c9.27,4.3,16.91,10.29,21.43,19.81,1.67,3.52,3.15,7,2.62,10.94-.47,3.45-2.02,5.28-6.09,4.4-9.75-2.11-17.69-7.32-24.88-13.86-3.93-3.57-7.54-7.49-11.32-11.23-2.51-2.49-3.23-5.26-1.74-8.59,2.97-6.65,5.24-13.82,13.06-16.64,4.3,1.65,8.96,2.58,12.34,6.08q-13.38-.16-15.63,3.24c3.88-.47,7.62-.46,11.27,1.17-1.39.53-2.72,1.03-4.06,1.54-2.39.08-4.71.31-6.65,3.14h9.64Z" fill="#f5ac39" stroke-width="0"/><path d="m89.47,402.22c-3.39-3.5-8.04-4.43-12.35-6.08-.7-.93-2.04-1.39-2.04-2.82,9.01-.13,18.38,5.29,20.8,12.02-2.38-.54-3.83-2.99-6.42-3.12Z" fill="#c4552d" stroke-width="0"/><path d="m84.05,411.32h-9.64c1.93-2.83,4.25-3.06,6.65-3.14,5.33.35,10.81-1.5,16,1.04,1.42,1.15.92,2.68.82,4.14-3.3-1.06-6.21-3.06-9.72-3.69-1.95-.35-3.22-.12-4.1,1.66Z" fill="#c4552d" stroke-width="0"/><path d="m115.26,444.79c-3.52,5.36-1.78,11.39-2.16,17.15-.14,2.12-.09,4.26-.13,6.38-1.97-7.68-.61-15.41-.19-23.11.02-.4.95-.75,1.46-1.12.17.13.35.14.54.06.3.12.46.33.49.65Z" fill="#43282d" stroke-width="0"/><path d="m188.6,635.04c.07.22.16.43.19.65,0,.06-.19.14-.29.21-.06-.22-.14-.42-.16-.64,0-.07.17-.15.26-.22Z" fill="#e7c091" stroke-width="0"/><path d="m231.17,98.16c1.58.14,2.94.74,4.02,1.93-1.66.03-3.68.81-4.02-1.93Z" fill="#f27f45" stroke-width="0"/><path d="m221.13,92.2c.7.61,1.4,1.23,2.1,1.84-1.54.28-2.87.18-3.14-1.78.35-.02.69-.04,1.04-.06Z" fill="#f27f45" stroke-width="0"/><path d="m229.17,97.13c.82.04,1.57.22,1.98,1.05-.89.09-1.6-.16-1.98-1.05Z" fill="#f27f45" stroke-width="0"/><path d="m227.17,96.13c.82.03,1.56.22,2,1.01-.89.11-1.61-.12-2-1.01Z" fill="#f27f45" stroke-width="0"/><path d="m225.17,95.13c.82.02,1.55.23,2,1-.89.12-1.61-.12-2-1Z" fill="#f27f45" stroke-width="0"/><path d="m223.24,94.07c.64.36,1.29.71,1.93,1.07-.9.11-1.61-.13-1.93-1.07Z" fill="#f27f45" stroke-width="0"/><path d="m218.13,91.17c.65.37,1.31.73,1.96,1.1-.86,0-1.56-.29-1.96-1.1Z" fill="#f27f45" stroke-width="0"/><path d="m213.15,88.19c.64.37,1.28.73,1.92,1.1-.84-.02-1.52-.31-1.92-1.1Z" fill="#f27f45" stroke-width="0"/><path d="m215.07,89.29c.41.29.81.59,1.22.88-.41-.29-.81-.59-1.22-.88Z" fill="#f27f45" stroke-width="0"/><path d="m259.98,373.28c-4.6,10.52-11.63,19.71-16.6,29.98-3.42,7.07-7.66,8.95-15.55,8.12-23.34-2.46-46.77-1.84-70.12.82.07-.32.13-.63.17-.95,1.31-1.72-.05-3.14-.63-4.56-2.71-6.61-5.56-13.16-8.29-19.77-1.91-4.62-3.72-9.29-5.78-14.48,13.07,2.42,25.16,5.23,37.62,5.84,12.44.61,24.85.38,37.29.09,14.16-.34,28.01-2.69,41.89-5.08Z" fill="#f27f45" stroke-width="0"/><path d="m108.08,377.34c1.36-.41,2.73-.82,4.09-1.24,3.32,5.75,3.28,12.65,7.01,18.37-1.3-6.03-2.59-12.05-3.89-18.08,7.25-.37,14.5-.74,21.75-1.1,4.87,12.12,9.84,24.21,14.59,36.37,3.23,8.26.97,15.73-4.35,22.29-6.44,7.92-17.13,8.1-25.07.76-.91-2.43.36-6.28-4.13-6.4-.23-.28-.49-.38-.78-.31-.07-9.64-3.26-18.61-5.87-27.71-.37-6.22-1.8-12.25-3.48-18.22l.13-4.73Zm34.81,34.01c-3.34-4.79-6.59-6.04-11.72-4.52-5.81,1.72-9.99,7.26-10.02,13.28-.04,6.14,2.01,8.99,7.8,10.9,4.88,1.6,9.27.24,12.7-3.94,3.63-4.41,4.1-10.44,1.24-15.72Zm-19.66-1.47c.4-.13.8-.26,1.2-.39-1.48-4.34-2.96-8.67-4.43-13.01-.5,4.98,1.21,9.24,3.24,13.4Z" fill="#63838e" stroke-width="0"/><path d="m259.98,373.28c-13.88,2.39-27.73,4.74-41.89,5.08-12.44.3-24.85.53-37.29-.09-12.46-.61-24.56-3.43-37.62-5.84,2.07,5.19,3.87,9.86,5.78,14.48,2.73,6.6,5.58,13.16,8.29,19.77.58,1.42,1.94,2.83.63,4.56-3.96-1.95-4.8-6.23-6.25-9.59-4.96-11.56-9.17-23.44-13.67-35.2-.21-.47-.41-.95-.62-1.42-.13-.51-.27-1.01-.4-1.52-.12-2.71,1.15-2.83,3.4-2.14,22.43,6.83,45.49,9.42,68.8,8.62,19.19-.65,38.44-1.6,57.14-6.8-1.16,2.27-3,4.22-3.36,6.89,0,0,.04.05.04.05-.82.43-1.13,1.12-1.04,2.02,0,0,.11-.02.11-.02-.34.31-.68.62-1.02.93-.35.07-.71.14-1.06.22Z" fill="#db4f3d" stroke-width="0"/><path d="m137.04,375.29c-7.25.37-14.5.74-21.75,1.1-1.84-4.87-2.18-9.95-2.23-15.1-.03-2.85,1.67-3.84,4.04-4,4.31-.28,8.6-.21,12.81,1.02,1.9.56,3.41,1.56,3.82,3.51.95,4.53,3.1,8.75,3.3,13.46Z" fill="#445a6c" stroke-width="0"/><path d="m118.08,428.31c4.49.13,3.22,3.97,4.13,6.4-.11.55-.21,1.11-.32,1.67-.92-.51-1.84-1.03-2.77-1.54-.35-2.18-.7-4.36-1.05-6.54Z" fill="#445a6c" stroke-width="0"/><path d="m137.36,365.03c.21.47.41.94.62,1.42-.21-.47-.41-.94-.62-1.42Z" fill="#a52c2d" stroke-width="0"/><path d="m107.95,382.07c1.68,5.97,3.11,12,3.48,18.22-1.15.02-1.69.83-2.22,1.68-3.46,5.57-3.43,5.54-8.74,1.25-2.28-1.84-4.79-3.41-6.39-5.98,2.62-6.88,8.18-11.08,13.86-15.17Z" fill="#db4f3d" stroke-width="0"/><path d="m97.05,409.21c-5.19-2.54-10.67-.69-16-1.04,1.33-.51,2.66-1.01,4.06-1.54-3.65-1.63-7.4-1.64-11.27-1.17q2.26-3.4,15.63-3.24c2.58.13,4.04,2.58,6.42,3.12.39,1.29.78,2.58,1.17,3.87Z" fill="#dc702d" stroke-width="0"/><path d="m120.19,449.23c2.22,2.23,4.01,4.74,4.96,7.78,0,.87.12,1.68.93,2.19.14.22.18.45.1.7-.05.95.1,1.81,1.07,2.28,0,0,.01-.16.01-.16,0,.66-.06,1.32,0,1.98.14,1.76,2.23,4.02-.81,5.02-2.36.78-4.08-.63-5.29-2.69-2.71-4.62-4.51-9.68-5.69-14.8-1.27-5.48,3.21-1.3,4.72-2.3Z" fill="#43282d" stroke-width="0"/><path d="m123.72,480.87c1.9,4.46,1.66,9.03.72,13.64-.84,4.08-3.02,6.92-7.3,7.78,2.64-6.27,6.06-12.33,5.21-19.56-.07-.56.89-1.24,1.37-1.86Z" fill="#445a6c" stroke-width="0"/><path d="m129.04,473.11c.35,4.69-3.21,3.83-5.92,4.17-1.11-5.77,3.57-3.31,5.92-4.17Z" fill="#445a6c" stroke-width="0"/><path d="m286.23,638.29c.6.22.77.62.52,1.21-.17-.4-.35-.81-.52-1.21Z" fill="#e7c091" stroke-width="0"/><path d="m324.89,638.22c-.2,1.28-.93,1.64-2.11,1.18-8.76-3.45-17.49-2.77-26.22.16-.35.12-.87-.27-1.31-.42,6.27-6.51,20.58-6.95,29.63-.91Z" fill="#a52c2d" stroke-width="0"/><path d="m340.35,152.44c-2.97-4.47-2.68-10.52-5.81-14.54-8.34-10.74-3.23-20.2,1.68-29.83,7.32-14.39,17.95-26.6,26.69-40.05.65-1,1.57-1.71,2.84-1.82.06,1.75.13,3.51.19,5.26,0,0-.31.34-.31.34l.34.32c.71,17.45.79,34.81-4.76,51.71-2.85,8.66-7.39,16.23-13.3,23.07-2.69,1.62-4.51,4.41-7.55,5.55Z" fill="#e7c091" stroke-width="0"/><path d="m352.05,34.81c-15.18,14.86-34.14,23.47-53.78,31.69,1.8-4.88,5.32-8.47,9.66-10.55,14.67-7.04,29.45-13.85,44.12-21.14Z" fill="#a52c2d" stroke-width="0"/><path d="m365.96,72.11l-.34-.32s.31-.34.31-.34c.15.21.16.43.03.66Z" fill="#ef947f" stroke-width="0"/><path d="m265.69,27.58c-.98-.26-1.81-.72-2.09-1.78-.02-.07.24-.31.35-.3,1.1.06,1.69.86,2.29,1.64-.18.15-.36.3-.55.44Z" fill="#f27f45" stroke-width="0"/><path d="m267.76,29.69c-1.11-.28-1.73-1.05-2.07-2.1.19-.14.37-.29.54-.44.68.63,1.37,1.27,2.05,1.9-.18.21-.36.42-.53.65Z" fill="#f27f45" stroke-width="0"/><path d="m301.92,429.27c8.05-6.68,16.1-13.37,24.15-20.05,7.76-3.36,15.52-6.53,24.3-6.08,2.01.1,5.59,2.73,5.87-.29.24-2.64-4.03-2.39-6.6-2.66-.16-.02-.33-.02-.5-.03-.37-.22-.75-.44-1.12-.67-1.63-.04-3.26-.07-4.89-.11-.97-.13-1.95-.27-3.91-.53,7.21-2.84,13.23-6.32,20.29-6.65,5.38-.25,9.22,2.5,11.32,7.8,2.43,6.13,1.78,10.78-2.68,14.48-6.8,5.64-14.69,9.63-22.41,13.81-14.08,7.62-29.34,12.27-44.44,17.29-4.48,1.49-6.99-.9-8.08-7.22,0,0-.04-.07-.04-.07.36-.33.71-.66,1.07-.99,2.56-2.67,5.12-5.35,7.68-8.02Z" fill="#f5ac39" stroke-width="0"/><path d="m301.92,429.27c-2.56,2.67-5.12,5.35-7.68,8.02-.36.33-.71.66-1.07.99,0,0,.04.07.04.07-1.17,2.18-2.34,4.35-3.51,6.52-2.31-1.08-3.65,1.46-5.66,1.52-.65-7.05.64-14.04,2.79-20.51,4.22-12.69,5.62-26.33,13.01-38.02,2.61-4.13,3.43-9.27,3.45-14.32,0,0,.11-.22.11-.22.23-.38.46-.76.7-1.14.31-.63.62-1.26.94-1.88.89-.43,1.09-1.2,1.03-2.1,0,0-.02.04-.02.04,1.45-.62,2.09-1.71,1.94-3.27,0-.21.09-.4.23-.56.28-.4.57-.81.85-1.21,0,0-.03.03-.03.03,5.26-6.48,11.82-7.01,19.13-4.21.76.29,1.62.32,2.44.47.33.29.65.58.98.87.19.6.37,1.19.56,1.79-11.75-1.46-17.66,6.24-23.1,14.71-.5.78-.74,1.46-.03,2.2,5.85,6.03,10.76,13.05,18.2,17.42-2.85,3.22-6.68,5.41-9.16,9.05-1.33,1.96-3.23,2.28-4.96.2-2.33-2.8-4.84-5.48-6.89-8.48-2.07-3.02-2.1-6.45-.99-9.99.71-2.27,2.22-4.45,1.37-7.77-8.23,16.43-10.71,32.7-4.66,49.78Z" fill="#db4f3d" stroke-width="0"/><path d="m302.97,479.08c5.36,3.7,6.47,8.02,3.55,14.11-1.1,2.3-2.46,4.43-5.08,1.58-1.44-1.56-1.76-.34-2.49.57-2.01,2.5-4.02,5.29-6.21.04-.74-1.78-2.62-1.36-3.95-.87-4.83,1.79-6.65.3-7.22-4.9-.88-8.05.84-15.33,4.38-22.38.77,5.74,2.98,11.02,5.28,16.25,1.2,2.74,3.05,3.11,5.37.98,2.05-1.88,4.25-3.59,6.38-5.38Z" fill="#43282d" stroke-width="0"/><path d="m349.14,400.16c.17,0,.33,0,.5.03,2.57.27,6.84.03,6.6,2.66-.28,3.02-3.85.39-5.87.29-8.77-.45-16.54,2.72-24.3,6.08.02-1.08-.15-2.21.9-2.98,4.51-2.27,9.06-4.44,14.16-5.05,1.14-.14,1.74-.76,2-1.81,1.63.04,3.26.07,4.89.11.37.22.75.44,1.12.67Z" fill="#c4552d" stroke-width="0"/><path d="m303.3,373.55c-.02,5.05-.84,10.19-3.45,14.32-7.39,11.69-8.79,25.33-13.01,38.02-2.15,6.48-3.44,13.46-2.79,20.51-.28.32-.56.64-.84.96-.36.02-.71.05-1.06.07-3.5-4.8-2.76-10.45-1.58-15.35,4.78-19.74,12.65-38.41,21.08-56.84.34-.75.7-1.52,1.65-1.7Z" fill="#a52c2d" stroke-width="0"/><path d="m282.14,447.44c.35-.02.71-.05,1.06-.07,1.5,1.28,2.38,2.73,1.4,4.74-3.67,7.48-6.82,15.39-15.4,18.87-2.62-1.96-1.97-4.34-.64-6.58,2.44-4.11,5.06-8.11,7.61-12.16,2.5-.97,5.09-1.83,5.97-4.81Z" fill="#43282d" stroke-width="0"/><path d="m293.15,369.22c-6.4-.72-12.44,1.63-18.68,2.3-3.8.41-7.57.7-11.38.72-.04-.7-.07-1.41-.1-2.11,0,0-.04-.04-.04-.05,9.52-3.26,19.66-2.81,29.39-4.79,2.21-.45,2.83,1.12,2.78,3.04,0,0,.02-.09.02-.09-.66.33-1.32.65-1.99.98Z" fill="#445a6c" stroke-width="0"/><path d="m330.6,359.49c-.82-.15-1.68-.18-2.44-.47-7.31-2.8-13.87-2.27-19.13,4.21-.08-1.73.18-3.37,1.22-4.81.32-.37.63-.73.95-1.1.16-.23.23-.49.18-.77.3-.38.59-.75.89-1.13.33-.34.66-.67.99-1.01.35-.31.7-.61,1.05-.92,1.09-.23,1.67-1.05,2.18-1.94,3.51-1.94,6.16-.14,8.77,1.98,1.38,1.12,2.82,2.17,4.22,3.25.37.9.74,1.79,1.11,2.69Z" fill="#a52c2d" stroke-width="0"/><path d="m307.99,364.97c.14,1.56-.5,2.65-1.94,3.27-.12-1.55.33-2.75,1.94-3.27Z" fill="#a52c2d" stroke-width="0"/><path d="m306.07,368.2c.06.9-.14,1.67-1.03,2.1-.1-.92.13-1.68,1.03-2.1Z" fill="#a52c2d" stroke-width="0"/><path d="m309.06,363.2c-.28.4-.57.8-.85,1.21-.04-.63.22-1.04.85-1.21Z" fill="#a52c2d" stroke-width="0"/><path d="m311.21,357.32c-.32.36-.64.73-.95,1.1.32-.36.64-.73.95-1.1Z" fill="#43282d" stroke-width="0"/><path d="m312.28,355.43c-.3.37-.59.75-.89,1.13.3-.37.59-.75.89-1.13Z" fill="#43282d" stroke-width="0"/><path d="m304.1,372.19c-.23.38-.47.76-.7,1.14.23-.38.46-.76.7-1.14Z" fill="#a52c2d" stroke-width="0"/><path d="m314.32,353.5c-.35.3-.7.61-1.05.92.35-.3.7-.61,1.05-.92Z" fill="#43282d" stroke-width="0"/><path d="m242.16,472.21c.2-7.23.4-14.47.6-21.7.13-.73.26-1.46.38-2.19,2.22-.44,3.18.87,3.26,2.73.58,14.23,2.63,28.62-2.19,42.49-4.31,12.39-13.4,19.64-26.35,21.5-16.3,2.35-32.48,2.02-48.12-3.92-8.64-3.28-13.24-10.02-15.13-18.98.72.89,1.45,1.77,2.15,2.67.72.91,1.36,1.89,2.12,2.76,6.09,7.04,14.54,9.08,23.13,10.41,10.37,1.6,20.76,1.9,31.27.56,10.8-1.37,19.3-5.73,24.68-15.44,5.8-6.08,5.67-13.35,4.2-20.89Z" fill="#2f3e51" stroke-width="0"/><path d="m242.95,417.57c.3-.59.6-1.18.89-1.76.77-.18,2.13-.69,2.23-.51,1.95,3.58,3.68,2.34,5.47-.1,5.36-7.29,10.87-8.32,17.64-3.29,3.06,8.91-.54,16.41-8.77,18.24-8.57,1.91-14.93-2.67-17.47-12.58Z" fill="#f5ac39" stroke-width="0"/><path d="m242.95,417.57c2.54,9.91,8.89,14.49,17.47,12.58,8.23-1.83,11.83-9.33,8.77-18.24-.03-.6-.07-1.21-.1-1.82,2.98,2.48,3.63-.32,4.54-2.1,6.54-12.9,13.02-25.84,19.51-38.76.66-.33,1.32-.65,1.99-.98-.8,5.07-4.12,9-6.24,13.45-4.85,10.19-10.21,20.13-15.42,30.15-.78,1.5-1.64,2.75-.78,4.6,3.35,7.13-.62,12.17-5.31,16.64-5.09,4.85-11.18,4.62-17.16,1.87-5.86-2.71-8.83-7.35-7.92-14.04.15-1.13-.22-2.34.65-3.33Z" fill="#2f3e51" stroke-width="0"/><path d="m238.61,451.49c-5.42,2.41-11.34,2.46-17.03,3.1-22.59,2.55-45.05.49-67.41-2.95-.96-.15-1.88-.63-2.82-.96,9.81-.71,19.59.48,29.4.55,19.29.13,38.58.18,57.87.27Z" fill="#e7c091" stroke-width="0"/><path d="m238.61,451.49c-19.29-.09-38.58-.14-57.87-.27-9.8-.07-19.58-1.26-29.4-.55-.28-3.8,2.73-3.3,4.79-3.28,5.78.05,11.56.66,17.34.69,23.22.15,46.44.17,69.66.23-.13.73-.25,1.46-.38,2.19-1.38.33-2.77.65-4.15.98Z" fill="#445a6c" stroke-width="0"/><path d="m269.1,410.08c.03.61.07,1.22.1,1.82-6.78-5.03-12.29-4-17.65,3.29-1.79,2.44-3.52,3.68-5.47.1-.1-.18-1.46.33-2.23.51.2-6.29,4.04-9.93,9.4-11.94,5.44-2.04,11.29.51,15.86,6.21Z" fill="#e7c091" stroke-width="0"/><path d="m242.16,472.21c1.47,7.54,1.59,14.81-4.2,20.89,2.41-6.76,2.58-13.97,4.2-20.89Z" fill="#445a6c" stroke-width="0"/><path d="m127.25,462.18c-.97-.47-1.12-1.33-1.07-2.28.98.47,1.17,1.31,1.07,2.28Z" fill="#261825" stroke-width="0"/><path d="m126.08,459.2c-.82-.51-.94-1.33-.93-2.19.72.56,1.05,1.28.93,2.19Z" fill="#261825" stroke-width="0"/><path d="m262.99,370.13c.03.7.07,1.41.1,2.11-.38-.03-.76-.06-1.14-.09-.09-.9.22-1.59,1.04-2.02Z" fill="#2f3e51" stroke-width="0"/><path d="m261.04,373.06c.34-.31.68-.62,1.02-.93-.34.31-.68.62-1.02.93Z" fill="#2f3e51" stroke-width="0"/><path d="m142.9,411.35c2.86,5.28,2.39,11.31-1.24,15.72-3.44,4.18-7.82,5.54-12.7,3.94.33-.03.66-.02.98-.1.08-.02.2-.34.15-.42-1.38-2.12-4.41-3.44-3.91-6.45.69-4.15,12.43-12.83,16.72-12.68Z" fill="#f5ac39" stroke-width="0"/><path d="m142.9,411.35c-4.29-.15-16.03,8.53-16.72,12.68-.5,3.02,2.53,4.33,3.91,6.45.05.08-.07.4-.15.42-.31.08-.65.08-.98.1-5.8-1.91-7.84-4.76-7.81-10.9.04-6.03,4.21-11.56,10.02-13.28,5.13-1.52,8.38-.26,11.72,4.52Z" fill="#e7c091" stroke-width="0"/><path d="m123.24,409.88c-2.02-4.16-3.74-8.42-3.24-13.4,1.48,4.34,2.96,8.67,4.43,13.01-.4.13-.8.26-1.2.39Z" fill="#2f3e51" stroke-width="0"/><path d="m293.17,438.29c.36-.33.71-.66,1.07-.99-.36.33-.71.66-1.07.99Z" fill="#dc702d" stroke-width="0"/><path d="m349.14,400.16c-.37-.22-.75-.45-1.12-.67.37.22.75.45,1.12.67Z" fill="#dc702d" stroke-width="0"/></svg>